Coordinates
version=1
nRows=18
nColumns=22
inDegrees=yes

Units are S.I. units (second, meters, Newtons, ...)
If the header above contains a line with 'inDegrees', this indicates whether rotational values are in degrees (yes) or radians (no).

endheader
time	pelvis_tilt	pelvis_list	pelvis_rotation	pelvis_tx	pelvis_ty	pelvis_tz	hip_flexion_r	hip_adduction_r	hip_rotation_r	knee_angle_r	ankle_angle_r	subtalar_angle_r	hip_flexion_l	hip_adduction_l	hip_rotation_l	knee_angle_l	ankle_angle_l	subtalar_angle_l	lumbar_extension	lumbar_bending	lumbar_rotation
      2.72000000	     -2.63031153	     -2.40953187	     -0.27173009	     -0.50414191	      0.98518194	     -0.07810882	     28.98424941	      0.95483245	     -7.44985039	    -24.24180012	     -3.16213338	      2.26484311	    -10.57733899	     -3.77451037	     -6.24319526	    -26.33390333	      5.69652177	      8.52068722	     -4.33825740	      1.72102348	     -6.65968967
      2.73000000	     -2.64588392	     -2.66929982	     -0.30456893	     -0.49206709	      0.98732270	     -0.07575026	     28.34571991	      1.42890042	     -7.26427959	    -24.44129972	     -2.63552457	      1.81610735	     -9.92842193	     -4.35161219	     -6.67345830	    -28.35800107	      3.76615576	      8.85525956	     -4.09373707	      2.03176476	     -6.67848717
      2.74000000	     -2.65901970	     -2.91323899	     -0.30132312	     -0.48013872	      0.98944082	     -0.07338443	     27.65243979	      1.87524510	     -7.14308493	    -24.53862800	     -2.07379766	      1.39267024	     -9.14483690	     -4.96219293	     -7.16933760	    -30.56413456	      1.93553301	      9.10442599	     -3.86370483	      2.30901634	     -6.71580928
      2.75000000	     -2.67410177	     -3.16104661	     -0.26873195	     -0.46840597	      0.99150309	     -0.07098153	     26.92255273	      2.31803184	     -7.07664723	    -24.54696835	     -1.51229599	      1.03503218	     -8.23100232	     -5.62552724	     -7.69275015	    -32.93780524	      0.26781129	      9.24020788	     -3.65242216	      2.57074745	     -6.76645882
      2.76000000	     -2.68821879	     -3.41721166	     -0.20965594	     -0.45690985	      0.99348913	     -0.06856729	     26.16301316	      2.75830702	     -7.07267622	    -24.47631037	     -0.96358080	      0.72967301	     -7.19475113	     -6.33932288	     -8.20443423	    -35.46409284	     -1.16065771	      9.24008268	     -3.47134454	      2.82477320	     -6.81368002
      2.77000000	     -2.69969884	     -3.68406782	     -0.12744096	     -0.44566043	      0.99538508	     -0.06616827	     25.38011639	      3.19735776	     -7.12783792	    -24.33727143	     -0.43300592	      0.47099217	     -6.05151990	     -7.09270176	     -8.66512423	    -38.10501878	     -2.30777569	      9.07921339	     -3.32567935	      3.07656732	     -6.85137557
      2.78000000	     -2.70584621	     -3.95648636	     -0.02720527	     -0.43467119	      0.99718368	     -0.06381162	     24.58012336	      3.63078438	     -7.23007305	    -24.14259629	      0.08005287	      0.24956914	     -4.81767540	     -7.86093210	     -9.03780108	    -40.81250198	     -3.14518321	      8.73788323	     -3.21982314	      3.32177455	     -6.87400763
      2.79000000	     -2.71095696	     -4.21310723	      0.08208660	     -0.42394724	      0.99887292	     -0.06152818	     23.77860648	      4.03838906	     -7.35518988	    -23.91443181	      0.58643753	      0.03599773	     -3.50518633	     -8.59434952	     -9.28795866	    -43.52607317	     -3.67845794	      8.12248550	     -3.14914179	      3.53983894	     -6.85780948
      2.80000000	     -2.70008277	     -4.47394194	      0.20265132	     -0.41346585	      1.00049187	     -0.05933546	     22.95054468	      4.44102786	     -7.49626371	    -23.63639930	      1.06046137	     -0.09020558	     -2.14294230	     -9.30610033	     -9.42001003	    -46.19592048	     -3.85246732	      7.50206052	     -3.12573651	      3.75706879	     -6.81940877
      2.81000000	     -2.66870893	     -4.71551279	      0.32916612	     -0.40321143	      1.00205409	     -0.05723884	     22.10103502	      4.81641654	     -7.64309845	    -23.33208353	      1.51629247	     -0.16329994	     -0.75300606	     -9.96122048	     -9.45428997	    -48.76371344	     -3.67985377	      6.86880556	     -3.14861669	      3.94861708	     -6.76962390
      2.82000000	     -2.63501367	     -4.91446045	      0.45047659	     -0.39316991	      1.00355305	     -0.05524590	     21.25206489	      5.14441301	     -7.77216270	    -23.00896561	      1.96726191	     -0.19756018	      0.66793066	    -10.51134403	     -9.38200721	    -51.18165383	     -3.24916560	      6.08646839	     -3.19136278	      4.08734584	     -6.66424331
      2.83000000	     -2.58213145	     -5.04686333	      0.55108326	     -0.38329855	      1.00503327	     -0.05333173	     20.39065995	      5.40461006	     -7.87702785	    -22.68638825	      2.44967488	     -0.18009759	      2.07665902	    -10.93553472	     -9.26834893	    -53.40213726	     -2.62057137	      5.19665295	     -3.26601844	      4.14390327	     -6.49611165
      2.84000000	     -2.49788693	     -5.15611122	      0.65086376	     -0.37355696	      1.00654555	     -0.05148956	     19.47725755	      5.64367895	     -7.96620682	    -22.30926862	      2.86420053	     -0.11844511	      3.45836886	    -11.28368053	     -9.10329563	    -55.41550798	     -1.81802620	      4.52441293	     -3.37585587	      4.16987679	     -6.31705401
      2.85000000	     -2.40398815	     -5.19518453	      0.71491112	     -0.36392711	      1.00805407	     -0.04967150	     18.55303019	      5.81898071	     -8.02002077	    -21.92230023	      3.30051713	     -0.01979398	      4.80961933	    -11.51027155	     -8.95876814	    -57.19001759	     -0.97775611	      3.81686560	     -3.49221826	      4.10671724	     -6.07790314
      2.86000000	     -2.29008056	     -5.17206683	      0.73916347	     -0.35439328	      1.00957966	     -0.04786048	     17.60344224	      5.93949523	     -8.03773931	    -21.51792284	      3.73025793	      0.10477206	      6.10815403	    -11.63317015	     -8.85872949	    -58.71835249	     -0.15383996	      3.18719984	     -3.62413429	      3.96358235	     -5.77602668
      2.87000000	     -2.16330862	     -5.10074410	      0.72560391	     -0.34493208	      1.01110211	     -0.04604277	     16.63144606	      6.01977904	     -8.01260073	    -21.09199522	      4.14833265	      0.24723467	      7.35813646	    -11.67859791	     -8.81949837	    -60.00299432	      0.63156690	      2.65864795	     -3.75908355	      3.75867466	     -5.42766329
      2.88000000	     -2.02955408	     -4.99103482	      0.66460569	     -0.33551774	      1.01260435	     -0.04418821	     15.63926055	      6.07040532	     -7.95743803	    -20.63464246	      4.54887583	      0.37667937	      8.55308379	    -11.66475220	     -8.85518241	    -61.03973312	      1.37910973	      2.27050439	     -3.88541557	      3.49902584	     -5.02223462
      2.89000000	     -1.88711009	     -4.84329152	      0.57124651	     -0.32621970	      1.01405348	     -0.04232507	     14.64830550	      6.08670456	     -7.85342705	    -20.18568129	      4.94023168	      0.44253692	      9.70797150	    -11.58585586	     -8.93104229	    -61.85141897	      2.08915512	      2.02899592	     -4.01916428	      3.19024306	     -4.58704434
